#!OML:ASF H:\Terrain\Patient Classification 1\Walking\steve\steve.ASF
:FULLY-SPECIFIED
:DEGREES
167
root 7.69924 14.5596 5.34049 19.1617 -9.03909 -5.68399
lowerback 1.23491 9.47023 -0.24923
upperback -3.50744 12.4745 -5.99267
thorax -3.03063 6.18511 -6.4352
lowerneck -11.9003 -4.9353 -6.83605
upperneck 6.68137 -6.36346 8.55825
head 4.43776 -2.83863 3.27331
rclavicle -3.97569e-014 -3.81667e-014
rhumerus 7.75791 12.9571 -64.2681
rradius 55.3621
rwrist -24.375
rhand -19.9652 -32.4602
rfingers 7.12502
rthumb 6.37343 -62.3443
lclavicle -3.97569e-014 -3.81667e-014
lhumerus -60.7813 20.4577 21.0566
lradius 13.0917
lwrist -16.7553
lhand -17.9064 -12.161
lfingers 7.12502
lthumb 8.36069 17.6536
rfemur 10.3804 9.30793 23.7352
rtibia 36.6482
rfoot 13.5926 -5.97153
rtoes -13.7555
lfemur -69.7228 10.5272 -21.0962
ltibia 65.387
lfoot -13.7761 -4.33724
ltoes 4.97119
168
root 7.70417 14.5981 5.57032 19.0947 -8.67252 -5.70628
lowerback 1.1265 9.1997 -0.47189
upperback -3.33125 12.1193 -5.68592
thorax -2.93462 6.01573 -5.96652
lowerneck -11.9339 -4.77551 -6.62374
upperneck 6.97307 -6.16638 8.25382
head 4.49987 -2.74928 3.15916
rclavicle -8.3092e-014 -1.74931e-014
rhumerus 6.03494 13.5613 -65.593
rradius 54.8732
rwrist -23.4037
rhand -19.9652 -32.4602
rfingers 7.12502
rthumb 6.37343 -62.3443
lclavicle -8.3092e-014 -1.74931e-014
lhumerus -59.4139 22.9504 22.0862
lradius 12.6589
lwrist -19.686
lhand -18.6243 -13.7919
lfingers 7.12502
lthumb 7.66783 16.0491
rfemur 9.13461 8.84273 23.8985
rtibia 38.545
rfoot 10.6876 -5.69489
rtoes -14.891
lfemur -68.7641 10.2214 -21.0842
ltibia 65.7114
lfoot -14.9644 -4.37572
ltoes 2.6772
169
root 7.73366 14.6568 5.80568 19.2457 -8.48331 -5.93134
lowerback 1.11559 9.07715 -0.209727
upperback -3.45298 11.9663 -5.51291
thorax -3.05354 5.93082 -5.93709
lowerneck -11.7913 -4.62359 -6.41142
upperneck 7.41843 -6.00603 8.02966
head 4.58688 -2.67582 3.06932
rclavicle 9.14409e-015 1.90833e-014
rhumerus 3.77393 14.1341 -67.0024
rradius 54.404
rwrist -22.8495
rhand -23.9747 -38.8594
rfingers 7.12502
rthumb 2.50175 -68.8245
lclavicle 9.14409e-015 1.90833e-014
lhumerus -58.3404 25.9253 22.0745
lradius 12.3019
lwrist -24.3313
lhand -18.9786 -13.1618
lfingers 7.12502
lthumb 7.32581 16.6914
rfemur 7.27258 8.28334 23.9738
rtibia 40.6519
rfoot 8.47718 -4.85216
rtoes -16.9675
lfemur -67.8605 10.1153 -20.9511
ltibia 65.7681
lfoot -16.0233 -4.36399
ltoes 1.09247
170
root 7.76336 14.7255 6.0779 19.6076 -8.18593 -6.24011
lowerback 0.432688 9.00044 0.11333
upperback -3.58536 11.8948 -5.32538
thorax -2.79306 5.89555 -5.80231
lowerneck -11.8539 -4.59706 -6.36497
upperneck 8.20945 -6.01312 7.95678
head 4.83714 -2.67186 3.03466
rclavicle 9.14409e-014 -1.11319e-014
rhumerus 1.35717 14.5951 -68.458
rradius 53.7509
rwrist -22.2938
rhand -24.6817 -40.0483
rfingers 7.12502
rthumb 1.81903 -70.0203
lclavicle 9.14409e-014 -1.11319e-014
lhumerus -56.8929 28.3985 23.0053
lradius 12.036
lwrist -28.0582
lhand -19.6963 -12.7884
lfingers 7.12502
lthumb 6.63297 17.0877
rfemur 5.42761 7.64664 24.082
rtibia 42.4738
rfoot 6.35565 -3.37671
rtoes -20.0254
lfemur -66.978 9.96784 -20.7445
ltibia 65.7675
lfoot -17.1425 -4.55958
ltoes -0.912171
171
root 7.74737 14.8251 6.22644 19.316 -8.60262 -5.52611
lowerback 1.58235 8.91338 -1.43179
upperback -3.62544 11.6781 -5.28165
thorax -3.81167 5.79881 -5.18365
lowerneck -12.041 -4.53866 -6.20619
upperneck 8.7131 -5.97298 7.88941
head 5.01377 -2.64098 2.98686
rclavicle -1.42727e-013 6.52014e-014
rhumerus -0.56874 14.8948 -69.8989
rradius 53.1724
rwrist -21.5381
rhand -26.1341 -40.0832
rfingers 7.12502
rthumb 0.416209 -70.0625
lclavicle -1.42727e-013 6.52014e-014
lhumerus -54.0886 29.3132 26.9438
lradius 12.1039
lwrist -28.2907
lhand -20.4207 -13.1681
lfingers 7.12502
lthumb 5.9337 16.7288
rfemur 3.22767 8.12319 23.6675
rtibia 44.6465
rfoot 4.28834 -2.91468
rtoes -21.5086
lfemur -65.4442 9.93786 -21.3104
ltibia 64.9919
lfoot -17.6293 -4.3637
ltoes -2.94287
172
root 7.77241 14.9087 6.49053 19.1294 -8.62282 -5.32558
lowerback 0.723678 8.76765 -1.45676
upperback -3.15153 11.5372 -5.21072
thorax -2.86769 5.74807 -4.88377
lowerneck -12.1044 -4.47173 -5.99585
upperneck 8.7885 -5.91017 7.81235
head 5.03443 -2.60562 2.93297
rclavicle 1.06151e-013 -3.18055e-014
rhumerus -2.27836 15.1145 -71.295
rradius 52.6655
rwrist -20.9189
rhand -31.0799 -33.6167
rfingers 7.12502
rthumb -4.36024 -63.5518
lclavicle 1.06151e-013 -3.18055e-014
lhumerus -50.8051 29.726 31.5601
lradius 12.4746
lwrist -27.4535
lhand -20.7093 -13.6405
lfingers 7.12502
lthumb 5.655 16.264
rfemur 1.72711 7.59615 23.3033
rtibia 46.4467
rfoot 2.21208 -1.56927
rtoes -21.1824
lfemur -63.5607 9.67695 -21.5
ltibia 64.3907
lfoot -18.5289 -4.5551
ltoes -1.53767
173
root 7.79764 15.0005 6.71848 18.9857 -8.58272 -5.01128
lowerback 0.592727 8.62178 -1.57958
upperback -2.97232 11.351 -5.19885
thorax -2.64725 5.66077 -4.76268
lowerneck -12.1155 -4.46512 -5.84261
upperneck 8.93398 -5.9187 7.67579
head 5.0729 -2.61122 2.86396
rclavicle 1.70955e-014 3.18055e-014
rhumerus -4.19662 15.4032 -72.6385
rradius 51.911
rwrist -20.4162
rhand -23.5571 -39.8609
rfingers 7.12502
rthumb 2.90511 -69.8208
lclavicle 1.70955e-014 3.18055e-014
lhumerus -47.783 30.4753 35.3259
lradius 12.8389
lwrist -26.7612
lhand -20.4733 -14.5817
lfingers 7.12502
lthumb 5.88285 15.3166
rfemur -0.234933 7.03946 22.94
rtibia 48.4121
rfoot 0.586239 -0.42614
rtoes -19.7072
lfemur -61.7686 9.37796 -21.8269
ltibia 63.4279
lfoot -19.1067 -4.77801
ltoes 0.427783
